<svg width="32" height="32" viewBox="0 0 32 32" fill="none" xmlns="http://www.w3.org/2000/svg">
<g filter="url(#filter0_i_132_195)">
<path d="M13.0618 11.1035L13.0832 11.0675L18.3457 11.1324L18.3592 11.157L26.193 11.2367C25.2792 9.05435 23.6826 7.13582 21.4927 5.83487C20.0955 5.00485 18.5936 4.50815 17.0794 4.31891L13.0495 11.1026L13.0618 11.1035Z" fill="#F7931E"/>
<path d="M20.9207 15.7234L20.8988 15.7604L24.7376 22.5931C25.003 22.2453 25.2516 21.8785 25.4804 21.4935C27.4023 18.2582 27.543 14.4601 26.1931 11.2367L18.3592 11.1571L20.9207 15.7234Z" fill="#FBB03B"/>
<path d="M18.2327 20.2481L18.2198 20.2482L14.213 26.9931C18.1724 27.4958 22.2259 25.8902 24.7374 22.5931L20.8986 15.7604L18.2327 20.2481Z" fill="#F15A24"/>
<path d="M14.213 26.9929L18.2198 20.2481L12.9701 20.1831L12.9426 20.1348L5.10885 20.0463C6.01973 22.2422 7.62181 24.173 9.82312 25.4807C11.2118 26.3056 12.7053 26.8012 14.213 26.9929Z" fill="#995817"/>
<path d="M13.0619 11.1034L13.0491 11.1034L10.4146 15.5382L13.0491 11.1034L17.0789 4.31977C13.1253 3.82685 9.08103 5.43405 6.57419 8.72756L10.4145 15.5599L13.0619 11.1034Z" fill="#F15A24"/>
<path d="M10.3952 15.5922L10.4143 15.56L6.57406 8.72762C6.31064 9.0741 6.06315 9.43901 5.83499 9.82308C3.91981 13.047 3.77374 16.8304 5.10801 20.0457L12.9417 20.1342L10.3952 15.5922Z" fill="#422B0D"/>
</g>
<defs>
<filter id="filter0_i_132_195" x="4.23096" y="4.2323" width="22.8538" height="26.8514" filterUnits="userSpaceOnUse" color-interpolation-filters="sRGB">
<feFlood flood-opacity="0" result="BackgroundImageFix"/>
<feBlend mode="normal" in="SourceGraphic" in2="BackgroundImageFix" result="shape"/>
<feColorMatrix in="SourceAlpha" type="matrix" values="0 0 0 0 0 0 0 0 0 0 0 0 0 0 0 0 0 0 127 0" result="hardAlpha"/>
<feOffset dy="4"/>
<feGaussianBlur stdDeviation="2"/>
<feComposite in2="hardAlpha" operator="arithmetic" k2="-1" k3="1"/>
<feColorMatrix type="matrix" values="0 0 0 0 0 0 0 0 0 0 0 0 0 0 0 0 0 0 0.25 0"/>
<feBlend mode="normal" in2="shape" result="effect1_innerShadow_132_195"/>
</filter>
</defs>
</svg>
