<svg width="42" height="36" viewBox="0 0 42 36" fill="none" xmlns="http://www.w3.org/2000/svg">
<circle cx="20.9024" cy="17.8946" r="17.4222" fill="url(#paint0_radial_215_740)"/>
<g filter="url(#filter0_i_215_740)">
<circle cx="20.982" cy="17.9742" r="15.2743" fill="url(#paint1_radial_215_740)"/>
</g>
<path d="M29.6282 8.30467L22.9139 17.9044L20.2906 16.0696L26.9945 6.48479C21.306 3.50857 14.1566 5.14443 10.3794 10.5448C6.59109 15.9611 7.52267 23.2638 12.3063 27.5825L18.7163 18.4031L21.2629 20.1843L14.8285 29.3688C20.5462 32.4752 27.8077 30.8614 31.6245 25.4043C35.43 19.9614 34.4704 12.6139 29.6282 8.30467ZM12.1774 22.1624C10.7266 19.0923 10.9109 15.3491 12.9927 12.3726C15.0746 9.3961 18.5265 7.93839 21.909 8.24879L12.1774 22.1624ZM19.9234 27.6826L29.7512 13.6315C31.2819 16.7294 31.1242 20.5491 29.0082 23.5744C26.8922 26.5997 23.3594 28.0586 19.9234 27.6826Z" fill="url(#paint2_radial_215_740)"/>
<g filter="url(#filter1_di_215_740)">
<path d="M8.58398 15.2188C9.03971 15.2448 9.41406 15.4206 9.70703 15.7461C10 16.0651 10.2116 16.4297 10.3418 16.8398C10.472 17.25 10.5371 17.6699 10.5371 18.0996C10.5371 18.5293 10.472 18.9492 10.3418 19.3594C10.2181 19.7695 10.0065 20.1374 9.70703 20.4629C9.41406 20.7819 9.03971 20.9544 8.58398 20.9805H4.99023C4.81445 20.974 4.66471 20.9121 4.54102 20.7949C4.42383 20.6712 4.36198 20.5215 4.35547 20.3457V17.377H5.67383V19.4082C5.67383 19.584 5.76497 19.6719 5.94727 19.6719H8.25195C8.49935 19.6589 8.70443 19.5645 8.86719 19.3887C9.02995 19.2129 9.14714 19.0143 9.21875 18.793C9.29688 18.5651 9.33594 18.334 9.33594 18.0996C9.33594 17.8652 9.29688 17.6374 9.21875 17.416C9.14714 17.1882 9.02995 16.9863 8.86719 16.8105C8.70443 16.6348 8.49935 16.5404 8.25195 16.5273H4.36523V15.2188H8.58398ZM14.1328 20.9805C13.5599 20.9609 13.127 20.8275 12.834 20.5801C12.541 20.3262 12.3294 20.043 12.1992 19.7305C12.069 19.4115 12.0039 19.0892 12.0039 18.7637C12.0039 18.4251 12.0658 18.0996 12.1895 17.7871C12.3197 17.4681 12.5312 17.1849 12.8242 16.9375C13.1237 16.6836 13.5013 16.5534 13.957 16.5469H18.2148V17.8555H13.918C13.7943 17.8555 13.6868 17.9076 13.5957 18.0117C13.5046 18.1094 13.4362 18.2266 13.3906 18.3633C13.3516 18.4935 13.332 18.6237 13.332 18.7539C13.332 18.8906 13.3516 19.0273 13.3906 19.1641C13.4362 19.2943 13.5046 19.4115 13.5957 19.5156C13.6868 19.6133 13.7943 19.6654 13.918 19.6719H18.2148V20.9805H14.1328ZM21.8984 20.9805C21.3255 20.9609 20.8926 20.8275 20.5996 20.5801C20.3066 20.3262 20.0951 20.043 19.9648 19.7305C19.8346 19.4115 19.7695 19.0892 19.7695 18.7637C19.7695 18.4251 19.8314 18.0996 19.9551 17.7871C20.0853 17.4681 20.2969 17.1849 20.5898 16.9375C20.8893 16.6836 21.2669 16.5534 21.7227 16.5469H24.8867C25.3424 16.5534 25.7168 16.6836 26.0098 16.9375C26.3092 17.1849 26.5208 17.4681 26.6445 17.7871C26.7747 18.0996 26.8398 18.4251 26.8398 18.7637C26.8398 19.0892 26.7747 19.4115 26.6445 19.7305C26.5143 20.043 26.3027 20.3262 26.0098 20.5801C25.7168 20.8275 25.2839 20.9609 24.7109 20.9805H21.8984ZM21.6836 17.8555C21.5599 17.8555 21.4525 17.9076 21.3613 18.0117C21.2702 18.1094 21.2018 18.2266 21.1562 18.3633C21.1172 18.4935 21.0977 18.6237 21.0977 18.7539C21.0977 18.8906 21.1172 19.0273 21.1562 19.1641C21.2018 19.2943 21.2702 19.4115 21.3613 19.5156C21.4525 19.6133 21.5599 19.6654 21.6836 19.6719H24.9258C25.0495 19.6654 25.1569 19.6133 25.248 19.5156C25.3392 19.4115 25.4043 19.2943 25.4434 19.1641C25.4889 19.0273 25.5117 18.8906 25.5117 18.7539C25.5117 18.6237 25.4889 18.4935 25.4434 18.3633C25.4043 18.2266 25.3392 18.1094 25.248 18.0117C25.1569 17.9076 25.0495 17.8555 24.9258 17.8555H21.6836ZM29.7422 16.5371V21.0098H28.4238V16.5371H29.7422ZM28.2773 15.1797C28.2773 14.9974 28.3555 14.8411 28.5117 14.7109C28.668 14.5807 28.8568 14.5156 29.0781 14.5156C29.2995 14.5156 29.4883 14.5807 29.6445 14.7109C29.8008 14.8411 29.8789 14.9974 29.8789 15.1797C29.8789 15.3685 29.8008 15.528 29.6445 15.6582C29.4883 15.7884 29.2995 15.8535 29.0781 15.8535C28.8568 15.8535 28.668 15.7884 28.5117 15.6582C28.3555 15.528 28.2773 15.3685 28.2773 15.1797ZM34.5781 16.4004C34.9167 16.4004 35.2487 16.4395 35.5742 16.5176C35.9062 16.5957 36.222 16.7129 36.5215 16.8691C36.821 17.0189 37.0846 17.2207 37.3125 17.4746C37.5469 17.7285 37.6738 18.0312 37.6934 18.3828V18.793V21.0098H36.375V20.0332V18.6855C36.362 18.4837 36.2839 18.3177 36.1406 18.1875C36.0039 18.0508 35.8477 17.9434 35.6719 17.8652C35.5026 17.7871 35.3236 17.7285 35.1348 17.6895C34.9525 17.6504 34.7669 17.6309 34.5781 17.6309C34.3893 17.6309 34.2005 17.6504 34.0117 17.6895C33.8294 17.7285 33.6504 17.7871 33.4746 17.8652C33.3053 17.9434 33.1491 18.0508 33.0059 18.1875C32.8691 18.3177 32.7943 18.4837 32.7812 18.6855V20.0332V21.0098H31.4727V18.793V18.3828C31.4922 18.0312 31.6159 17.7285 31.8438 17.4746C32.0716 17.2207 32.3353 17.0189 32.6348 16.8691C32.9342 16.7129 33.2467 16.5957 33.5723 16.5176C33.9043 16.4395 34.2396 16.4004 34.5781 16.4004Z" fill="black"/>
<path d="M8.58398 15.2188L8.61251 14.7196L8.59826 14.7188H8.58398V15.2188ZM9.70703 15.7461L9.33537 16.0806L9.33877 16.0843L9.70703 15.7461ZM10.3418 19.3594L9.86518 19.2081L9.86309 19.215L10.3418 19.3594ZM9.70703 20.4629L9.33907 20.1244L9.33877 20.1247L9.70703 20.4629ZM8.58398 20.9805V21.4805H8.59826L8.61251 21.4797L8.58398 20.9805ZM4.99023 20.9805L4.97173 21.4801L4.98098 21.4805H4.99023V20.9805ZM4.54102 20.7949L4.17804 21.1388L4.18733 21.1486L4.19714 21.1579L4.54102 20.7949ZM4.35547 20.3457H3.85547V20.355L3.85581 20.3642L4.35547 20.3457ZM4.35547 17.377V16.877H3.85547V17.377H4.35547ZM5.67383 17.377H6.17383V16.877H5.67383V17.377ZM8.25195 19.6719V20.1719H8.2651L8.27823 20.1712L8.25195 19.6719ZM8.86719 19.3887L9.23407 19.7284L8.86719 19.3887ZM9.21875 18.793L8.74571 18.6308L8.74303 18.6391L9.21875 18.793ZM9.21875 17.416L8.74175 17.5659L8.74436 17.5742L8.74725 17.5824L9.21875 17.416ZM8.86719 16.8105L9.23407 16.4708L8.86719 16.8105ZM8.25195 16.5273L8.27823 16.028L8.2651 16.0273H8.25195V16.5273ZM4.36523 16.5273H3.86523V17.0273H4.36523V16.5273ZM4.36523 15.2188V14.7188H3.86523V15.2188H4.36523ZM8.55546 15.7179C8.88577 15.7368 9.13467 15.8576 9.33538 16.0806L10.0787 15.4116C9.69345 14.9836 9.19365 14.7528 8.61251 14.7196L8.55546 15.7179ZM9.33877 16.0843C9.58278 16.35 9.75722 16.6509 9.86523 16.9911L10.8184 16.6886C10.666 16.2085 10.4172 15.7802 10.0753 15.4079L9.33877 16.0843ZM9.86523 16.9911C9.97993 17.3524 10.0371 17.7213 10.0371 18.0996H11.0371C11.0371 17.6185 10.9641 17.1476 10.8184 16.6886L9.86523 16.9911ZM10.0371 18.0996C10.0371 18.4779 9.97993 18.8468 9.86523 19.2081L10.8184 19.5107C10.9641 19.0517 11.0371 18.5807 11.0371 18.0996H10.0371ZM9.86309 19.215C9.7619 19.5505 9.58917 19.8525 9.33907 20.1244L10.075 20.8014C10.4239 20.4222 10.6743 19.9885 10.8205 19.5037L9.86309 19.215ZM9.33877 20.1247C9.1389 20.3423 8.88906 20.4622 8.55546 20.4813L8.61251 21.4797C9.19037 21.4466 9.68922 21.2215 10.0753 20.8011L9.33877 20.1247ZM8.58398 20.4805H4.99023V21.4805H8.58398V20.4805ZM5.00874 20.4808C4.95012 20.4786 4.91727 20.4626 4.88489 20.4319L4.19714 21.1579C4.41216 21.3616 4.67879 21.4693 4.97173 21.4801L5.00874 20.4808ZM4.90399 20.451C4.87331 20.4187 4.8573 20.3858 4.85513 20.3272L3.85581 20.3642C3.86666 20.6571 3.97434 20.9238 4.17804 21.1388L4.90399 20.451ZM4.85547 20.3457V17.377H3.85547V20.3457H4.85547ZM4.35547 17.877H5.67383V16.877H4.35547V17.877ZM5.17383 17.377V19.4082H6.17383V17.377H5.17383ZM5.17383 19.4082C5.17383 19.5779 5.2188 19.7959 5.39512 19.9659C5.56805 20.1326 5.78351 20.1719 5.94727 20.1719V19.1719C5.92873 19.1719 6.00747 19.1672 6.08926 19.246C6.17442 19.3282 6.17383 19.4143 6.17383 19.4082H5.17383ZM5.94727 20.1719H8.25195V19.1719H5.94727V20.1719ZM8.27823 20.1712C8.65067 20.1516 8.97957 20.0032 9.23407 19.7284L8.50031 19.049C8.42928 19.1257 8.34802 19.1661 8.22567 19.1726L8.27823 20.1712ZM9.23407 19.7284C9.44466 19.5009 9.59983 19.2394 9.69447 18.9469L8.74303 18.6391C8.69444 18.7892 8.61523 18.9248 8.50031 19.049L9.23407 19.7284ZM9.69172 18.9551C9.78724 18.6765 9.83594 18.3907 9.83594 18.0996H8.83594C8.83594 18.2773 8.80651 18.4537 8.74578 18.6308L9.69172 18.9551ZM9.83594 18.0996C9.83594 17.8085 9.78721 17.5243 9.69025 17.2496L8.74725 17.5824C8.80654 17.7504 8.83594 17.922 8.83594 18.0996H9.83594ZM9.69575 17.2661C9.60186 16.9674 9.44698 16.7008 9.23407 16.4708L8.50031 17.1503C8.61292 17.2719 8.69241 17.4089 8.74175 17.5659L9.69575 17.2661ZM9.23407 16.4708C8.97957 16.196 8.65067 16.0476 8.27823 16.028L8.22567 17.0267C8.34802 17.0331 8.42928 17.0735 8.50031 17.1503L9.23407 16.4708ZM8.25195 16.0273H4.36523V17.0273H8.25195V16.0273ZM4.86523 16.5273V15.2188H3.86523V16.5273H4.86523ZM4.36523 15.7188H8.58398V14.7188H4.36523V15.7188ZM14.1328 20.9805L14.1158 21.4802L14.1243 21.4805H14.1328V20.9805ZM12.834 20.5801L12.5065 20.958L12.5114 20.9621L12.834 20.5801ZM12.1992 19.7305L11.7363 19.9194L11.7377 19.9228L12.1992 19.7305ZM12.1895 17.7871L11.7265 17.5982L11.7245 17.6031L12.1895 17.7871ZM12.8242 16.9375L13.1468 17.3195L13.1476 17.3189L12.8242 16.9375ZM13.957 16.5469V16.0468L13.9499 16.0469L13.957 16.5469ZM18.2148 16.5469H18.7148V16.0469H18.2148V16.5469ZM18.2148 17.8555V18.3555H18.7148V17.8555H18.2148ZM13.5957 18.0117L13.9612 18.3529L13.9667 18.347L13.972 18.341L13.5957 18.0117ZM13.3906 18.3633L12.9163 18.2052L12.9139 18.2124L12.9117 18.2196L13.3906 18.3633ZM13.3906 19.1641L12.9099 19.3014L12.9139 19.3155L12.9187 19.3292L13.3906 19.1641ZM13.5957 19.5156L13.2194 19.8449L13.2247 19.8509L13.2302 19.8568L13.5957 19.5156ZM13.918 19.6719L13.8917 20.1712L13.9048 20.1719H13.918V19.6719ZM18.2148 19.6719H18.7148V19.1719H18.2148V19.6719ZM18.2148 20.9805V21.4805H18.7148V20.9805H18.2148ZM14.1498 20.4808C13.6359 20.4632 13.3305 20.3449 13.1566 20.1981L12.5114 20.9621C12.9234 21.31 13.4838 21.4586 14.1158 21.4802L14.1498 20.4808ZM13.1614 20.2022C12.9184 19.9916 12.7572 19.7696 12.6608 19.5382L11.7377 19.9228C11.9017 20.3164 12.1636 20.6607 12.5065 20.9579L13.1614 20.2022ZM12.6621 19.5415C12.555 19.2789 12.5039 19.0207 12.5039 18.7637H11.5039C11.5039 19.1577 11.5831 19.544 11.7363 19.9194L12.6621 19.5415ZM12.5039 18.7637C12.5039 18.4877 12.554 18.2246 12.6544 17.9711L11.7245 17.6031C11.5775 17.9746 11.5039 18.3626 11.5039 18.7637H12.5039ZM12.6524 17.9761C12.7488 17.7399 12.9084 17.5208 13.1468 17.3195L12.5016 16.5555C12.1541 16.849 11.8906 17.1963 11.7265 17.5982L12.6524 17.9761ZM13.1476 17.3189C13.3447 17.1517 13.6048 17.052 13.9642 17.0468L13.9499 16.0469C13.3978 16.0548 12.9027 16.2154 12.5009 16.5561L13.1476 17.3189ZM13.957 17.0469H18.2148V16.0469H13.957V17.0469ZM17.7148 16.5469V17.8555H18.7148V16.5469H17.7148ZM18.2148 17.3555H13.918V18.3555H18.2148V17.3555ZM13.918 17.3555C13.632 17.3555 13.3929 17.4842 13.2194 17.6825L13.972 18.341C13.9804 18.3313 13.9782 18.337 13.9628 18.3444C13.9554 18.348 13.947 18.351 13.9382 18.353C13.9294 18.355 13.9224 18.3555 13.918 18.3555V17.3555ZM13.2302 17.6706C13.0863 17.8248 12.9827 18.0058 12.9163 18.2052L13.865 18.5214C13.8896 18.4473 13.9229 18.394 13.9612 18.3529L13.2302 17.6706ZM12.9117 18.2196C12.8593 18.3944 12.832 18.5729 12.832 18.7539H13.832C13.832 18.6745 13.8438 18.5926 13.8695 18.507L12.9117 18.2196ZM12.832 18.7539C12.832 18.9389 12.8586 19.1218 12.9099 19.3014L13.8714 19.0267C13.8446 18.9329 13.832 18.8423 13.832 18.7539H12.832ZM12.9187 19.3292C12.9854 19.52 13.0863 19.6928 13.2194 19.8449L13.972 19.1864C13.9228 19.1301 13.8869 19.0686 13.8626 18.9989L12.9187 19.3292ZM13.2302 19.8568C13.4021 20.0409 13.628 20.1573 13.8917 20.1712L13.9442 19.1726C13.9447 19.1726 13.9472 19.1728 13.9511 19.1738C13.9551 19.1748 13.9592 19.1763 13.9628 19.178C13.9645 19.1788 13.9658 19.1796 13.9668 19.1802C13.9677 19.1808 13.9682 19.1811 13.9682 19.1811C13.9681 19.1811 13.9657 19.1792 13.9612 19.1745L13.2302 19.8568ZM13.918 20.1719H18.2148V19.1719H13.918V20.1719ZM17.7148 19.6719V20.9805H18.7148V19.6719H17.7148ZM18.2148 20.4805H14.1328V21.4805H18.2148V20.4805ZM21.8984 20.9805L21.8814 21.4802L21.8899 21.4805H21.8984V20.9805ZM20.5996 20.5801L20.2721 20.958L20.277 20.9621L20.5996 20.5801ZM19.9648 19.7305L19.5019 19.9194L19.5033 19.9228L19.9648 19.7305ZM19.9551 17.7871L19.4921 17.5982L19.4902 17.6031L19.9551 17.7871ZM20.5898 16.9375L20.9124 17.3195L20.9132 17.3189L20.5898 16.9375ZM21.7227 16.5469V16.0468L21.7155 16.0469L21.7227 16.5469ZM24.8867 16.5469L24.8939 16.0469H24.8867V16.5469ZM26.0098 16.9375L25.6822 17.3155L25.6913 17.323L26.0098 16.9375ZM26.6445 17.7871L26.1782 17.9679L26.183 17.9794L26.6445 17.7871ZM26.6445 19.7305L27.1061 19.9228L27.1075 19.9194L26.6445 19.7305ZM26.0098 20.5801L26.3324 20.9621L26.3372 20.9579L26.0098 20.5801ZM24.7109 20.9805V21.4805H24.7195L24.728 21.4802L24.7109 20.9805ZM21.3613 18.0117L21.7269 18.3529L21.7323 18.347L21.7376 18.341L21.3613 18.0117ZM21.1562 18.3633L20.6819 18.2052L20.6795 18.2124L20.6773 18.2196L21.1562 18.3633ZM21.1562 19.1641L20.6755 19.3014L20.6795 19.3155L20.6843 19.3292L21.1562 19.1641ZM21.3613 19.5156L20.985 19.8449L20.9903 19.8509L20.9958 19.8568L21.3613 19.5156ZM21.6836 19.6719L21.6573 20.1712L21.6704 20.1719H21.6836V19.6719ZM24.9258 19.6719V20.1719H24.9389L24.9521 20.1712L24.9258 19.6719ZM25.248 19.5156L25.6136 19.8568L25.6191 19.8509L25.6243 19.8449L25.248 19.5156ZM25.4434 19.1641L24.969 19.0059L24.9666 19.0131L24.9644 19.0204L25.4434 19.1641ZM25.4434 18.3633L24.9626 18.5006L24.9666 18.5147L24.9714 18.5285L25.4434 18.3633ZM25.248 18.0117L24.8718 18.341L24.877 18.347L24.8825 18.3529L25.248 18.0117ZM21.9155 20.4808C21.4016 20.4632 21.0961 20.3449 20.9222 20.1981L20.277 20.9621C20.6891 21.31 21.2495 21.4586 21.8814 21.4802L21.9155 20.4808ZM20.9271 20.2022C20.684 19.9916 20.5228 19.7696 20.4264 19.5382L19.5033 19.9228C19.6673 20.3164 19.9293 20.6607 20.2721 20.9579L20.9271 20.2022ZM20.4278 19.5415C20.3206 19.2789 20.2695 19.0207 20.2695 18.7637H19.2695C19.2695 19.1577 19.3487 19.544 19.5019 19.9194L20.4278 19.5415ZM20.2695 18.7637C20.2695 18.4877 20.3196 18.2246 20.42 17.9711L19.4902 17.6031C19.3431 17.9746 19.2695 18.3626 19.2695 18.7637H20.2695ZM20.418 17.9761C20.5144 17.7399 20.6741 17.5208 20.9124 17.3195L20.2673 16.5555C19.9197 16.849 19.6562 17.1963 19.4922 17.5982L20.418 17.9761ZM20.9132 17.3189C21.1103 17.1517 21.3704 17.052 21.7298 17.0468L21.7155 16.0469C21.1634 16.0548 20.6683 16.2154 20.2665 16.5561L20.9132 17.3189ZM21.7227 17.0469H24.8867V16.0469H21.7227V17.0469ZM24.8796 17.0468C25.2392 17.052 25.4935 17.1517 25.6823 17.3153L26.3372 16.5597C25.9401 16.2154 25.4457 16.0548 24.8939 16.0469L24.8796 17.0468ZM25.6913 17.323C25.9339 17.5234 26.0896 17.7389 26.1784 17.9679L27.1107 17.6063C26.9521 17.1973 26.6846 16.8464 26.3282 16.552L25.6913 17.323ZM26.183 17.9794C26.2878 18.231 26.3398 18.4911 26.3398 18.7637H27.3398C27.3398 18.3591 27.2617 17.9682 27.1061 17.5948L26.183 17.9794ZM26.3398 18.7637C26.3398 19.0207 26.2888 19.2789 26.1816 19.5415L27.1075 19.9194C27.2607 19.544 27.3398 19.1577 27.3398 18.7637H26.3398ZM26.183 19.5382C26.0866 19.7696 25.9253 19.9916 25.6823 20.2022L26.3372 20.9579C26.6801 20.6607 26.9421 20.3164 27.1061 19.9228L26.183 19.5382ZM25.6872 20.1981C25.5133 20.3449 25.2078 20.4632 24.6939 20.4808L24.728 21.4802C25.3599 21.4586 25.9203 21.31 26.3324 20.9621L25.6872 20.1981ZM24.7109 20.4805H21.8984V21.4805H24.7109V20.4805ZM21.6836 17.3555C21.3976 17.3555 21.1585 17.4842 20.985 17.6825L21.7376 18.341C21.746 18.3313 21.7438 18.337 21.7284 18.3444C21.721 18.348 21.7126 18.351 21.7038 18.353C21.695 18.355 21.688 18.3555 21.6836 18.3555V17.3555ZM20.9958 17.6706C20.8519 17.8248 20.7484 18.0058 20.6819 18.2052L21.6306 18.5214C21.6553 18.4473 21.6885 18.394 21.7269 18.3529L20.9958 17.6706ZM20.6773 18.2196C20.6249 18.3944 20.5977 18.5729 20.5977 18.7539H21.5977C21.5977 18.6745 21.6095 18.5926 21.6352 18.507L20.6773 18.2196ZM20.5977 18.7539C20.5977 18.9389 20.6242 19.1218 20.6755 19.3014L21.637 19.0267C21.6102 18.9329 21.5977 18.8423 21.5977 18.7539H20.5977ZM20.6843 19.3292C20.7511 19.52 20.852 19.6928 20.985 19.8449L21.7376 19.1864C21.6884 19.1301 21.6526 19.0686 21.6282 18.9989L20.6843 19.3292ZM20.9958 19.8568C21.1677 20.0409 21.3936 20.1573 21.6573 20.1712L21.7099 19.1726C21.7103 19.1726 21.7128 19.1728 21.7167 19.1738C21.7208 19.1748 21.7248 19.1763 21.7284 19.178C21.7301 19.1788 21.7314 19.1796 21.7324 19.1802C21.7334 19.1808 21.7338 19.1811 21.7338 19.1811C21.7337 19.1811 21.7313 19.1792 21.7269 19.1745L20.9958 19.8568ZM21.6836 20.1719H24.9258V19.1719H21.6836V20.1719ZM24.9521 20.1712C25.2158 20.1573 25.4417 20.0409 25.6136 19.8568L24.8825 19.1745C24.8781 19.1792 24.8756 19.1811 24.8756 19.1811C24.8756 19.1811 24.876 19.1808 24.877 19.1802C24.8779 19.1796 24.8793 19.1788 24.881 19.178C24.8846 19.1763 24.8886 19.1748 24.8926 19.1738C24.8966 19.1728 24.8991 19.1726 24.8995 19.1726L24.9521 20.1712ZM25.6243 19.8449C25.7617 19.6879 25.8623 19.5077 25.9223 19.3077L24.9644 19.0204C24.9463 19.0808 24.9167 19.135 24.8718 19.1864L25.6243 19.8449ZM25.9177 19.3222C25.9793 19.1372 26.0117 18.9472 26.0117 18.7539H25.0117C25.0117 18.834 24.9985 18.9174 24.969 19.0059L25.9177 19.3222ZM26.0117 18.7539C26.0117 18.5642 25.9783 18.3782 25.9153 18.1981L24.9714 18.5285C24.9995 18.6088 25.0117 18.6832 25.0117 18.7539H26.0117ZM25.9241 18.2259C25.8648 18.0181 25.7622 17.8298 25.6136 17.6706L24.8825 18.3529C24.9162 18.389 24.9438 18.435 24.9626 18.5006L25.9241 18.2259ZM25.6243 17.6825C25.4509 17.4842 25.2118 17.3555 24.9258 17.3555V18.3555C24.9214 18.3555 24.9143 18.355 24.9056 18.353C24.8968 18.351 24.8884 18.348 24.881 18.3444C24.8656 18.337 24.8633 18.3313 24.8718 18.341L25.6243 17.6825ZM24.9258 17.3555H21.6836V18.3555H24.9258V17.3555ZM29.7422 16.5371H30.2422V16.0371H29.7422V16.5371ZM29.7422 21.0098V21.5098H30.2422V21.0098H29.7422ZM28.4238 21.0098H27.9238V21.5098H28.4238V21.0098ZM28.4238 16.5371V16.0371H27.9238V16.5371H28.4238ZM29.2422 16.5371V21.0098H30.2422V16.5371H29.2422ZM29.7422 20.5098H28.4238V21.5098H29.7422V20.5098ZM28.9238 21.0098V16.5371H27.9238V21.0098H28.9238ZM28.4238 17.0371H29.7422V16.0371H28.4238V17.0371ZM28.7773 15.1797C28.7773 15.1641 28.7747 15.1427 28.8318 15.095L28.1916 14.3268C27.9363 14.5396 27.7773 14.8307 27.7773 15.1797H28.7773ZM28.8318 15.095C28.89 15.0465 28.9627 15.0156 29.0781 15.0156V14.0156C28.7509 14.0156 28.4459 14.1149 28.1916 14.3268L28.8318 15.095ZM29.0781 15.0156C29.1936 15.0156 29.2662 15.0465 29.3244 15.095L29.9646 14.3268C29.7104 14.1149 29.4054 14.0156 29.0781 14.0156V15.0156ZM29.3244 15.095C29.3816 15.1427 29.3789 15.1641 29.3789 15.1797H30.3789C30.3789 14.8307 30.22 14.5396 29.9646 14.3268L29.3244 15.095ZM29.3789 15.1797C29.3789 15.2075 29.3767 15.2305 29.3244 15.2741L29.9646 16.0423C30.2248 15.8255 30.3789 15.5295 30.3789 15.1797H29.3789ZM29.3244 15.2741C29.2662 15.3226 29.1936 15.3535 29.0781 15.3535V16.3535C29.4054 16.3535 29.7104 16.2542 29.9646 16.0423L29.3244 15.2741ZM29.0781 15.3535C28.9627 15.3535 28.89 15.3226 28.8318 15.2741L28.1916 16.0423C28.4459 16.2542 28.7509 16.3535 29.0781 16.3535V15.3535ZM28.8318 15.2741C28.7795 15.2305 28.7773 15.2075 28.7773 15.1797H27.7773C27.7773 15.5295 27.9314 15.8255 28.1916 16.0423L28.8318 15.2741ZM35.5742 16.5176L35.4575 17.0038L35.4597 17.0043L35.5742 16.5176ZM36.5215 16.8691L36.2902 17.3125L36.2979 17.3164L36.5215 16.8691ZM37.3125 17.4746L36.9403 17.8086L36.9451 17.8137L37.3125 17.4746ZM37.6934 18.3828H38.1934V18.3689L38.1926 18.3551L37.6934 18.3828ZM37.6934 21.0098V21.5098H38.1934V21.0098H37.6934ZM36.375 21.0098H35.875V21.5098H36.375V21.0098ZM36.375 18.6855H36.875V18.6694L36.874 18.6534L36.375 18.6855ZM36.1406 18.1875L35.7871 18.5411L35.7955 18.5495L35.8043 18.5575L36.1406 18.1875ZM35.6719 17.8652L35.4623 18.3193L35.4688 18.3221L35.6719 17.8652ZM35.1348 17.6895L35.03 18.1784L35.0335 18.1791L35.1348 17.6895ZM34.0117 17.6895L33.9104 17.1998L33.907 17.2006L34.0117 17.6895ZM33.4746 17.8652L33.2715 17.4083L33.2651 17.4113L33.4746 17.8652ZM33.0059 18.1875L33.3507 18.5496L33.3511 18.5492L33.0059 18.1875ZM32.7812 18.6855L32.2823 18.6534L32.2812 18.6694V18.6855H32.7812ZM32.7812 21.0098V21.5098H33.2812V21.0098H32.7812ZM31.4727 21.0098H30.9727V21.5098H31.4727V21.0098ZM31.4727 18.3828L30.9734 18.3551L30.9727 18.3689V18.3828H31.4727ZM32.6348 16.8691L32.8584 17.3164L32.866 17.3124L32.6348 16.8691ZM33.5723 16.5176L33.4577 16.0309L33.4556 16.0314L33.5723 16.5176ZM34.5781 16.9004C34.8778 16.9004 35.1707 16.9349 35.4575 17.0038L35.6909 16.0314C35.3267 15.944 34.9555 15.9004 34.5781 15.9004V16.9004ZM35.4597 17.0043C35.7516 17.073 36.028 17.1757 36.2902 17.3124L36.7528 16.4258C36.416 16.2501 36.0609 16.1184 35.6887 16.0309L35.4597 17.0043ZM36.2979 17.3164C36.5401 17.4375 36.7537 17.6005 36.9404 17.8086L37.6846 17.1407C37.4156 16.8409 37.1018 16.6003 36.7451 16.4219L36.2979 17.3164ZM36.9451 17.8137C37.0991 17.9806 37.1809 18.1725 37.1941 18.4105L38.1926 18.3551C38.1667 17.89 37.9947 17.4765 37.6799 17.1355L36.9451 17.8137ZM37.1934 18.3828V18.793H38.1934V18.3828H37.1934ZM37.1934 18.793V21.0098H38.1934V18.793H37.1934ZM37.6934 20.5098H36.375V21.5098H37.6934V20.5098ZM36.875 21.0098V20.0332H35.875V21.0098H36.875ZM36.875 20.0332V18.6855H35.875V20.0332H36.875ZM36.874 18.6534C36.853 18.3285 36.7208 18.0392 36.477 17.8175L35.8043 18.5575C35.8469 18.5962 35.871 18.6389 35.876 18.7177L36.874 18.6534ZM36.4942 17.8339C36.3143 17.6541 36.1071 17.5115 35.8749 17.4083L35.4688 18.3221C35.5882 18.3752 35.6935 18.4475 35.7871 18.5411L36.4942 17.8339ZM35.8814 17.4113C35.6764 17.3166 35.4609 17.2463 35.2361 17.1998L35.0335 18.1791C35.1862 18.2107 35.3288 18.2576 35.4623 18.3192L35.8814 17.4113ZM35.2395 17.2006C35.0224 17.154 34.8017 17.1309 34.5781 17.1309V18.1309C34.7322 18.1309 34.8826 18.1468 35.03 18.1784L35.2395 17.2006ZM34.5781 17.1309C34.3546 17.1309 34.1318 17.154 33.9104 17.1998L34.113 18.1791C34.2692 18.1468 34.4241 18.1309 34.5781 18.1309V17.1309ZM33.907 17.2006C33.6898 17.2471 33.4779 17.3166 33.2715 17.4083L33.6777 18.3221C33.8229 18.2576 33.969 18.21 34.1165 18.1784L33.907 17.2006ZM33.2651 17.4113C33.0428 17.5139 32.8412 17.6534 32.6606 17.8258L33.3511 18.5492C33.457 18.4481 33.5679 18.3729 33.6841 18.3192L33.2651 17.4113ZM32.661 17.8254C32.4265 18.0488 32.3028 18.3359 32.2823 18.6534L33.2802 18.7177C33.2858 18.6316 33.3118 18.5866 33.3507 18.5496L32.661 17.8254ZM32.2812 18.6855V20.0332H33.2812V18.6855H32.2812ZM32.2812 20.0332V21.0098H33.2812V20.0332H32.2812ZM32.7812 20.5098H31.4727V21.5098H32.7812V20.5098ZM31.9727 21.0098V18.793H30.9727V21.0098H31.9727ZM31.9727 18.793V18.3828H30.9727V18.793H31.9727ZM31.9719 18.4105C31.9853 18.1686 32.0666 17.9749 32.2159 17.8086L31.4716 17.1407C31.1652 17.4821 30.999 17.8939 30.9734 18.3551L31.9719 18.4105ZM32.2159 17.8086C32.4026 17.6005 32.6161 17.4375 32.8584 17.3164L32.4112 16.4219C32.0544 16.6003 31.7406 16.8409 31.4716 17.1407L32.2159 17.8086ZM32.866 17.3124C33.1296 17.1749 33.4036 17.0723 33.689 17.0038L33.4556 16.0314C33.0899 16.1192 32.7389 16.2508 32.4035 16.4258L32.866 17.3124ZM33.6868 17.0043C33.9816 16.9349 34.2784 16.9004 34.5781 16.9004V15.9004C34.2007 15.9004 33.827 15.944 33.4577 16.0309L33.6868 17.0043Z" fill="#FFE600"/>
</g>
<defs>
<filter id="filter0_i_215_740" x="5.70776" y="2.69995" width="30.5486" height="34.5486" filterUnits="userSpaceOnUse" color-interpolation-filters="sRGB">
<feFlood flood-opacity="0" result="BackgroundImageFix"/>
<feBlend mode="normal" in="SourceGraphic" in2="BackgroundImageFix" result="shape"/>
<feColorMatrix in="SourceAlpha" type="matrix" values="0 0 0 0 0 0 0 0 0 0 0 0 0 0 0 0 0 0 127 0" result="hardAlpha"/>
<feOffset dy="4"/>
<feGaussianBlur stdDeviation="2"/>
<feComposite in2="hardAlpha" operator="arithmetic" k2="-1" k3="1"/>
<feColorMatrix type="matrix" values="0 0 0 0 0 0 0 0 0 0 0 0 0 0 0 0 0 0 0.25 0"/>
<feBlend mode="normal" in2="shape" result="effect1_innerShadow_215_740"/>
</filter>
<filter id="filter1_di_215_740" x="0.355469" y="14.5156" width="41.3379" height="14.4941" filterUnits="userSpaceOnUse" color-interpolation-filters="sRGB">
<feFlood flood-opacity="0" result="BackgroundImageFix"/>
<feColorMatrix in="SourceAlpha" type="matrix" values="0 0 0 0 0 0 0 0 0 0 0 0 0 0 0 0 0 0 127 0" result="hardAlpha"/>
<feOffset dy="4"/>
<feGaussianBlur stdDeviation="2"/>
<feComposite in2="hardAlpha" operator="out"/>
<feColorMatrix type="matrix" values="0 0 0 0 0 0 0 0 0 0 0 0 0 0 0 0 0 0 0.25 0"/>
<feBlend mode="normal" in2="BackgroundImageFix" result="effect1_dropShadow_215_740"/>
<feBlend mode="normal" in="SourceGraphic" in2="effect1_dropShadow_215_740" result="shape"/>
<feColorMatrix in="SourceAlpha" type="matrix" values="0 0 0 0 0 0 0 0 0 0 0 0 0 0 0 0 0 0 127 0" result="hardAlpha"/>
<feOffset dy="1"/>
<feGaussianBlur stdDeviation="0.5"/>
<feComposite in2="hardAlpha" operator="arithmetic" k2="-1" k3="1"/>
<feColorMatrix type="matrix" values="0 0 0 0 0 0 0 0 0 0 0 0 0 0 0 0 0 0 0.1 0"/>
<feBlend mode="normal" in2="shape" result="effect2_innerShadow_215_740"/>
</filter>
<radialGradient id="paint0_radial_215_740" cx="0" cy="0" r="1" gradientUnits="userSpaceOnUse" gradientTransform="translate(20.8627 19.2868) rotate(27.4884) scale(23.1817)">
<stop stop-color="#F9E31F"/>
<stop offset="0.322917" stop-color="#F8E21E"/>
<stop offset="1" stop-color="#FFC266"/>
</radialGradient>
<radialGradient id="paint1_radial_215_740" cx="0" cy="0" r="1" gradientUnits="userSpaceOnUse" gradientTransform="translate(20.982 17.9742) rotate(90) scale(15.2743)">
<stop stop-color="#3F3C3C"/>
<stop offset="1"/>
</radialGradient>
<radialGradient id="paint2_radial_215_740" cx="0" cy="0" r="1" gradientUnits="userSpaceOnUse" gradientTransform="translate(20.9985 17.9767) rotate(34.9702) scale(12.9184 12.917)">
<stop stop-color="#FFED4B"/>
<stop offset="0.6534" stop-color="#FFDE33"/>
<stop offset="1" stop-color="#F7AD1E"/>
</radialGradient>
</defs>
</svg>
