<svg width="228" height="26" viewBox="0 0 228 26" fill="none" xmlns="http://www.w3.org/2000/svg">
<path d="M17.8203 1.875C19.6432 1.97917 21.1406 2.68229 22.3125 3.98438C23.4844 5.26042 24.3307 6.71875 24.8516 8.35938C25.3724 10 25.6328 11.6797 25.6328 13.3984C25.6328 15.1172 25.3724 16.7969 24.8516 18.4375C24.3568 20.0781 23.5104 21.5495 22.3125 22.8516C21.1406 24.1276 19.6432 24.8177 17.8203 24.9219H3.44531C2.74219 24.8958 2.14323 24.6484 1.64844 24.1797C1.17969 23.6849 0.932292 23.0859 0.90625 22.3828V10.5078H6.17969V18.6328C6.17969 19.3359 6.54427 19.6875 7.27344 19.6875H16.4922C17.4818 19.6354 18.3021 19.2578 18.9531 18.5547C19.6042 17.8516 20.0729 17.0573 20.3594 16.1719C20.6719 15.2604 20.8281 14.3359 20.8281 13.3984C20.8281 12.4609 20.6719 11.5495 20.3594 10.6641C20.0729 9.7526 19.6042 8.94531 18.9531 8.24219C18.3021 7.53906 17.4818 7.16146 16.4922 7.10938H0.945312V1.875H17.8203ZM39.3594 24.9609H34.0859V4.41406C34.112 3.6849 34.3854 3.08594 34.9062 2.61719C35.4271 2.1224 36.0521 1.875 36.7812 1.875H38.6953H43.5H53.1484C53.3047 1.875 53.4609 1.88802 53.6172 1.91406H53.8516C55.6745 1.96615 57.1719 2.38281 58.3438 3.16406C59.5156 3.94531 60.362 4.84375 60.8828 5.85938C61.4036 6.84896 61.6641 7.85156 61.6641 8.86719C61.6641 9.90885 61.4036 10.9375 60.8828 11.9531C60.388 12.9427 59.5417 13.8281 58.3438 14.6094C57.1719 15.3906 55.6745 15.8073 53.8516 15.8594H46.9766C47.1849 17.1615 47.6146 18.125 48.2656 18.75C48.8906 19.375 49.6849 19.6875 50.6484 19.6875H61.2734V24.9219H49.9453C48.0182 24.9479 46.2734 24.1927 44.7109 22.6562C43.1484 21.1198 42.1979 19.2969 41.8594 17.1875C41.3906 14.8438 41.1562 13.5286 41.1562 13.2422C41.1562 12.513 41.4036 11.901 41.8984 11.4062C42.4193 10.8854 43.0443 10.625 43.7734 10.625H54.0859C54.5807 10.599 54.9844 10.4948 55.2969 10.3125C55.6354 10.1042 55.8828 9.88281 56.0391 9.64844C56.1953 9.38802 56.2734 9.1276 56.2734 8.86719C56.2734 8.60677 56.1953 8.35938 56.0391 8.125C55.8828 7.86458 55.6354 7.64323 55.2969 7.46094C54.9844 7.2526 54.5807 7.13542 54.0859 7.10938H43.5H40.375C39.6979 7.13542 39.3594 7.47396 39.3594 8.125V24.9609ZM68.9453 19.6875H78.6328V7.10938H68.9453V1.875H93.5547V7.10938H83.9062V19.6875H93.5547V24.9219H68.9453V19.6875ZM109.352 22.8516C108.154 21.0547 106.956 18.6979 105.758 15.7812L100.367 1.875H106.148L110.25 13.125C110.667 14.1927 111.07 15.2083 111.461 16.1719C111.878 17.1094 112.333 17.9688 112.828 18.75C113.323 19.5312 113.883 19.9479 114.508 20C115.107 19.9479 115.641 19.5312 116.109 18.75C116.63 17.9688 117.086 17.1094 117.477 16.1719C117.893 15.2083 118.31 14.1927 118.727 13.125L122.711 1.875H128.492L123.219 15.7812C122.021 18.75 120.823 21.1198 119.625 22.8906C118.453 24.6354 116.747 25.5208 114.508 25.5469C112.242 25.5208 110.523 24.6224 109.352 22.8516ZM144.953 16.25H153.117L152.102 13.3594C151.685 12.2917 151.268 11.2891 150.852 10.3516C150.461 9.38802 150.005 8.51562 149.484 7.73438C149.016 6.95312 148.482 6.53646 147.883 6.48438C147.258 6.53646 146.698 6.95312 146.203 7.73438C145.708 8.51562 145.253 9.38802 144.836 10.3516C144.445 11.2891 144.042 12.2917 143.625 13.3594L139.367 25H133.586L139.133 10.7031C140.331 7.78646 141.529 5.42969 142.727 3.63281C143.898 1.86198 145.617 0.963542 147.883 0.9375C150.122 0.963542 151.828 1.86198 153 3.63281C154.198 5.3776 155.396 7.73438 156.594 10.7031L162.18 25H156.242L154.992 21.4844H144.953V16.25ZM176.336 1.875H194.852V7.10938H177.664C176.674 7.16146 175.854 7.53906 175.203 8.24219C174.552 8.94531 174.07 9.7526 173.758 10.6641C173.471 11.5495 173.328 12.4609 173.328 13.3984C173.328 14.3359 173.471 15.2604 173.758 16.1719C174.07 17.0573 174.552 17.8516 175.203 18.5547C175.854 19.2578 176.674 19.6354 177.664 19.6875H189.539C190.008 19.6615 190.255 19.401 190.281 18.9062V16.6406C190.255 16.1198 190.008 15.8594 189.539 15.8594H177.352V10.625H192.898C193.628 10.625 194.253 10.8724 194.773 11.3672C195.242 11.862 195.49 12.4609 195.516 13.1641V13.2422V22.3828C195.49 23.0859 195.242 23.6719 194.773 24.1406C194.279 24.6354 193.68 24.8958 192.977 24.9219H176.336C174.513 24.8177 173.003 24.1276 171.805 22.8516C170.633 21.5495 169.786 20.0781 169.266 18.4375C168.771 16.7969 168.523 15.1172 168.523 13.3984C168.523 11.6797 168.784 10 169.305 8.35938C169.826 6.71875 170.672 5.26042 171.844 3.98438C173.016 2.68229 174.513 1.97917 176.336 1.875ZM210.414 1.875H212.211H227.68V7.10938H211.742C210.753 7.16146 209.932 7.53906 209.281 8.24219C208.63 8.94531 208.148 9.7526 207.836 10.6641C207.549 11.5495 207.406 12.4609 207.406 13.3984C207.406 14.3359 207.549 15.2604 207.836 16.1719C208.148 17.0573 208.63 17.8516 209.281 18.5547C209.932 19.2578 210.753 19.6354 211.742 19.6875H227.68V24.9219H211.156H210.414C208.591 24.8177 207.081 24.1276 205.883 22.8516C204.711 21.5495 203.865 20.0781 203.344 18.4375C202.849 16.7969 202.602 15.1172 202.602 13.3984C202.602 11.6797 202.862 10 203.383 8.35938C203.904 6.71875 204.75 5.26042 205.922 3.98438C207.094 2.68229 208.591 1.97917 210.414 1.875ZM227.523 15.8594H211.508V10.625H227.523V15.8594Z" fill="#FEAE01"/>
</svg>
